<?xml version="1.0" encoding="UTF-8" standalone="no"?>
<svg width="100px" height="70px" viewBox="0 0 100 70" version="1.1" xmlns="http://www.w3.org/2000/svg" xmlns:xlink="http://www.w3.org/1999/xlink">
    <g stroke="none" stroke-width="1" fill="none" fill-rule="evenodd">
        <path d="M67.5,20.7 C64.9,18.1 61.2,16.7 57.2,16.7 C53.5,16.7 50.1,17.9 47.3,20 C45.1,16.3 40.9,13.8 36.1,13.8 C28.2,13.8 21.8,20.2 21.8,28.1 C21.8,29.5 22,30.9 22.4,32.1 C19.2,34.9 17.2,39 17.2,43.5 C17.2,52.4 24.5,59.7 33.4,59.7 C36.1,59.7 38.6,59 40.8,57.7 C43,60.1 46.3,61.6 49.9,61.6 C53.2,61.6 56.2,60.4 58.4,58.3 C60.6,60.4 63.6,61.6 66.9,61.6 C75.8,61.6 83.1,54.3 83.1,45.4 C83.1,36.5 76.3,29.4 67.5,29.1 C68.8,26.5 69.5,23.7 67.5,20.7 Z" fill="#00A1E0"></path>
        <path d="M29.7,44.5 L32.4,44.5 L32.4,42.3 L29.7,42.3 L29.7,39.5 L27.5,39.5 L27.5,42.3 L24.8,42.3 L24.8,44.5 L27.5,44.5 L27.5,47.3 L29.7,47.3 L29.7,44.5 Z M46.7,44.5 L49.4,44.5 L49.4,42.3 L46.7,42.3 L46.7,39.5 L44.5,39.5 L44.5,42.3 L41.8,42.3 L41.8,44.5 L44.5,44.5 L44.5,47.3 L46.7,47.3 L46.7,44.5 Z M63.7,44.5 L66.4,44.5 L66.4,42.3 L63.7,42.3 L63.7,39.5 L61.5,39.5 L61.5,42.3 L58.8,42.3 L58.8,44.5 L61.5,44.5 L61.5,47.3 L63.7,47.3 L63.7,44.5 Z M75.7,44.5 L78.4,44.5 L78.4,42.3 L75.7,42.3 L75.7,39.5 L73.5,39.5 L73.5,42.3 L70.8,42.3 L70.8,44.5 L73.5,44.5 L73.5,47.3 L75.7,47.3 L75.7,44.5 Z" fill="#FFFFFF"></path>
    </g>
</svg>




